<svg xmlns="http://www.w3.org/2000/svg" width="12.47" height="16.627" viewBox="0 0 12.47 16.627">
  <path id="Path_2043" data-name="Path 2043" d="M14.78,10.928H11.69a4.8,4.8,0,0,0-1.226.166V8.157a2.771,2.771,0,1,1,5.542,0V8.85h1.386V8.157a4.157,4.157,0,1,0-8.313,0v3.568A4.7,4.7,0,0,0,7,15.618v.319a4.7,4.7,0,0,0,4.69,4.69h3.09a4.7,4.7,0,0,0,4.69-4.69v-.319A4.7,4.7,0,0,0,14.78,10.928Zm3.3,5.009a3.312,3.312,0,0,1-3.3,3.3H11.69a3.312,3.312,0,0,1-3.3-3.3v-.319a3.312,3.312,0,0,1,3.3-3.3h3.09a3.312,3.312,0,0,1,3.3,3.3ZM13.235,13.7a2.12,2.12,0,1,0,2.12,2.12A2.12,2.12,0,0,0,13.235,13.7Zm0,2.854a.307.307,0,1,1,0,.028Z" transform="translate(-7 -4)" fill="#c6d9eb"/>
</svg>
