<svg xmlns="http://www.w3.org/2000/svg" width="18.334" height="14.009" viewBox="0 0 18.334 14.009">
  <g id="Group_4513" data-name="Group 4513" transform="translate(-8.1 -13.8)">
    <path id="Path_2040" data-name="Path 2040" d="M26.427,17.627,25.7,16.9l-6.736,6.736a2.218,2.218,0,0,1-3.1,0l-6.736-6.7-.727.727,5.014,5.014L8.4,27.694l.727.727,5.014-5.014,1,1a3.143,3.143,0,0,0,4.516,0l1-1,5.014,5.014.727-.727L21.375,22.68l5.052-5.052" transform="translate(-0.185 -1.913)" fill="#c6d9eb"/>
    <path id="Path_2041" data-name="Path 2041" d="M24.826,27.809H9.708A1.617,1.617,0,0,1,8.1,26.2V15.408A1.617,1.617,0,0,1,9.708,13.8H24.826a1.617,1.617,0,0,1,1.608,1.608V26.2A1.617,1.617,0,0,1,24.826,27.809ZM9.669,14.833a.523.523,0,0,0-.536.536V26.163a.523.523,0,0,0,.536.536H24.788a.523.523,0,0,0,.536-.536V15.369a.523.523,0,0,0-.536-.536Z" transform="translate(0 0)" fill="#c6d9eb"/>
  </g>
</svg>
