<svg xmlns="http://www.w3.org/2000/svg" width="21.906" height="21.906" viewBox="0 0 21.906 21.906">
  <path id="path7" d="M11.939.986A10.953,10.953,0,1,0,22.892,11.939,10.965,10.965,0,0,0,11.939.986Zm0,1.562A9.372,9.372,0,0,1,18.822,18.3a9.113,9.113,0,0,0-4-2.739,4.677,4.677,0,1,0-7.639-3.595A4.634,4.634,0,0,0,8.9,15.556a9.129,9.129,0,0,0-3.945,2.652,9.381,9.381,0,0,1,6.98-15.66Zm-.055,6.278a3.12,3.12,0,0,1,.1,6.237c-.045,0-.089-.009-.134-.009s-.077.008-.116.009a3.12,3.12,0,0,1,.15-6.237Zm-.15,7.8c.037,0,.075.012.112.012h.037c.034,0,.062-.011.1-.012a7.558,7.558,0,0,1,5.689,2.736A9.338,9.338,0,0,1,6.1,19.285a7.571,7.571,0,0,1,5.639-2.664Z" transform="translate(-0.986 -0.986)" fill="#fff"/>
</svg>
