<svg xmlns="http://www.w3.org/2000/svg" width="42.189" height="42.185" viewBox="0 0 42.189 42.185">
  <g id="Group_4515" data-name="Group 4515" transform="translate(-0.001 0)">
    <path id="Path_2045" data-name="Path 2045" d="M36.592,6.7A21.1,21.1,0,0,0,6.522,36.3l.154.156.013.013h0l.066.067.154.154a21.076,21.076,0,0,0,6.028,4.139l.214.1h0c.152.067.306.133.459.2l.248.1.248.1q.265.1.534.2h0q.286.1.578.193l.3.093q.419.128.844.237l.284.071c.152.038.3.073.457.106s.306.066.46.1q.289.057.578.1l.291.047.292.042.235.031.224.027h.021l.23.026.231.023.236.021c.158.013.315.024.474.034l.292.016H20.7c.095,0,.191.008.287.011h.079c.057,0,.113,0,.17,0h.04c.132,0,.265,0,.4,0h.008q.516,0,1.029-.026c.16-.007.32-.017.479-.028h.045l.248-.02.255-.023q.255-.025.51-.055c.169-.021.338-.044.506-.068s.337-.051.5-.083l.248-.045.248-.047.248-.05.268-.058.206-.047c.02,0,.04-.008.06-.014h.009c.067-.015.134-.031.2-.048l.248-.062.248-.065q.248-.067.486-.139c.083-.024.165-.049.242-.074s.161-.05.241-.077.16-.052.24-.083l.476-.165.237-.088c.083-.03.157-.06.235-.091.157-.062.312-.126.468-.191.116-.049.232-.1.348-.15s.23-.1.344-.157l.207-.1c.065-.031.13-.062.194-.094q.186-.092.371-.187h0A21.2,21.2,0,0,0,36.4,36.7l.039-.031h0c.056-.046.1-.094.146-.136.072-.072.144-.145.214-.217l.01-.009.027-.029A21.071,21.071,0,0,0,36.591,6.7ZM14.536,9.478a10.106,10.106,0,1,1-2.96,7.146,10.106,10.106,0,0,1,2.96-7.146ZM8.2,36.2l.175-.2.014-.013,0,0c.021-.024.042-.049.064-.072l.13-.144c.044-.048.088-.1.132-.143l.021-.023.007-.007c.044-.048.088-.094.132-.14.067-.07.135-.14.2-.209h0c.042-.043.083-.083.128-.127s.077-.078.116-.114l.048-.047c.042-.04.083-.083.126-.12l.017-.017.006-.006h0l.026-.024c.046-.045.092-.088.14-.13h0l.088-.083.018-.016c.044-.041.089-.083.134-.121l.1-.089c.046-.041.093-.083.14-.121l.119-.1.124-.1.14-.113c.035-.029.069-.057.1-.083l.015-.012.021-.017c.04-.032.083-.064.121-.095l.009-.007q.048-.039.1-.074l.017-.013.095-.072h0l.01-.007c.059-.045.119-.09.179-.133.016-.012.032-.025.049-.036.062-.046.124-.091.187-.135l.107-.075.014-.009.137-.095.016-.012.02-.013L11.79,33c.069-.047.137-.092.206-.138s.133-.087.2-.129c.045-.029.091-.058.137-.083l.025-.016.2-.125c.083-.051.172-.1.258-.152h0l.03-.017h0c.049-.029.1-.056.148-.083l.032-.017.029-.017.115-.064h0c.058-.032.116-.064.174-.094l.083-.042.012-.006L13.489,32l.026-.014c.063-.034.127-.065.19-.1l.224-.111.115-.056h.007l.021-.01.03-.014c.066-.032.133-.063.2-.093l.045-.021c.083-.039.17-.077.256-.114l.055-.025.2-.088h.007l.235-.1.049-.02h0l.1-.04.107-.041.094-.036c.083-.03.16-.059.24-.088a.54.54,0,0,1,.055-.02c.07-.026.141-.05.212-.073.041-.015.083-.029.125-.042.064-.022.13-.044.195-.064l.083-.026.021-.007.014,0c.083-.024.157-.049.236-.072l4.905,6.68,5.2-6.673.1.031.2.062.089.028.165.054.05.017.2.068h.007l.127.045.1.038.2.074c.09.034.179.069.268.1h0l.04.016.04.017.083.033.024.01.013.006.021.008c.045.017.092.037.136.057.07.029.138.059.207.09l.021.009.036.016.062.027.061.028h0l.033.015.13.059.026.012c.022.01.045.02.067.031h0c.071.034.144.068.214.1l.076.038.019.009c.059.029.117.058.175.088l.031.017h.006l.031.017.031.017.026.013.191.1.069.037q.112.06.223.124l.036.02.248.143.046.027.192.116c.046.028.092.056.139.083l.017.011.111.069.012.007h.007l.052.033.036.023c.069.044.14.089.208.135l.059.04q.083.055.165.114l.008.006.129.089h0c.036.025.073.05.11.078s.087.061.13.092.109.083.165.119l.021.017.1.073c.074.055.149.112.222.17s.118.092.177.139l.1.078.169.14c.023.018.046.037.069.057h0c.05.041.1.083.148.126h0l.013.012h0l.006,0,.057.049c.032.027.064.056.1.083l.026.024c.057.049.114.1.17.151q.2.184.4.377l.131.129c.054.052.107.1.159.159q.225.226.44.462l.026.029c.045.05.091.1.135.149l0,0,.047.054c.071.083.14.16.21.241A19.944,19.944,0,0,1,8.2,36.2Z" transform="translate(-0.589 -0.515)" fill="#231f20"/>
    <path id="Path_2046" data-name="Path 2046" d="M205.057,357.928l.047.014-5.2,6.673L195,357.936l.118-.035.119-.034.272-.074.13-.034h0l.017,0,.143-.036.143-.035.042-.01.126-.03.126-.028.057-.013h.017l.116-.025.117-.024q.062-.014.124-.025l.182-.035.1-.019.2-.036h0l.147-.024.147-.023.107-.016.108-.015h.058l.149-.019h.052c.059-.007.118-.015.178-.021l.183-.02.109-.028.218-.02.225-.017.179-.012h.062l.209-.011h.062l.182-.007h.979c.069,0,.139,0,.208.007h.027c.061,0,.123,0,.184.007h.006l.179.011.088,0c.054,0,.107.007.16.012h.016c.052,0,.1.007.157.012h.007c.077.006.153.013.229.021h.031l.083.008.115.012h.032l.182.021h.019l.033,0,.076.01.182.025.125.018.031,0,.148.023.248.041c.083.014.158.028.236.044.1.02.206.04.308.061l.306.067.268.064.089.022.034.008.145.038c.117.031.235.063.351.1C204.893,357.881,204.975,357.9,205.057,357.928Z" transform="translate(-178.945 -327.754)" fill="#fff"/>
    <path id="Path_2047" data-name="Path 2047" d="M102.778,349.613l-.348-.436a18.966,18.966,0,0,0-9.7-6.421,18.463,18.463,0,0,0-5.1-.707h-.06a18.793,18.793,0,0,0-4.79.636q-.488.129-.968.283a19.037,19.037,0,0,0-9,6.224l-.346.434h0l.156.153.013.013h0l.227.221a21.137,21.137,0,0,0,6.019,4.139l.214.1h0c.152.067.306.133.459.2l.248.1.248.1c.178.068.355.134.534.2h0c.192.067.383.131.578.193l.3.093q.419.126.844.237l.284.071q.228.055.457.106t.46.1q.289.057.578.1l.291.047.292.042.235.031.224.027h.021l.23.026.231.023.236.021c.158.013.315.024.474.034l.292.016h.028c.095,0,.191.008.287.011H87c.057,0,.113,0,.17,0h.04c.132,0,.265,0,.4,0h.008q.516,0,1.029-.026c.16-.007.32-.017.479-.028h.045l.248-.02.255-.023c.17-.016.34-.035.51-.055s.338-.044.506-.068.337-.051.5-.083l.248-.045.248-.047.248-.05.268-.058.206-.047c.02,0,.04-.008.06-.014h.009c.067-.015.134-.031.2-.048l.248-.062.248-.065q.248-.064.486-.139c.083-.024.165-.049.242-.074s.161-.05.241-.077.16-.052.24-.083c.159-.053.319-.109.477-.165l.237-.088c.083-.03.157-.06.235-.091.157-.062.312-.126.468-.191.116-.049.232-.1.348-.15s.23-.1.344-.157l.207-.1c.065-.031.13-.062.194-.094q.186-.092.371-.187h0a21.087,21.087,0,0,0,5.112-3.7h0l.36-.353.01-.009.028-.028Zm-28.646-.083.175-.2.014-.016,0,0c.021-.024.042-.049.064-.072l.13-.144c.044-.048.088-.1.132-.143l.021-.023.007-.007c.044-.048.088-.094.132-.14.067-.07.135-.14.2-.209h0c.042-.043.083-.083.128-.127s.077-.078.116-.114l.048-.047c.042-.04.083-.083.126-.12l.017-.017.006-.006h0l.026-.024c.046-.045.092-.088.14-.13h0l.088-.083.018-.016c.044-.041.089-.083.134-.121l.1-.089c.046-.041.093-.083.14-.121l.119-.1c.04-.035.083-.069.124-.1s.092-.076.14-.113.069-.057.1-.083l.015-.012.021-.016c.04-.032.083-.064.121-.095l.009-.007q.048-.039.1-.074l.017-.013.095-.072h0l.01-.007c.059-.045.119-.09.179-.133.016-.012.032-.025.049-.035.062-.046.124-.091.187-.135l.107-.075.014-.009.137-.095.016-.012.02-.013.04-.026c.069-.047.137-.092.206-.138s.133-.087.2-.129c.045-.029.091-.058.137-.083l.025-.016.2-.125c.083-.051.172-.1.258-.152h0l.03-.017h0c.049-.029.1-.056.148-.083l.032-.017.029-.017.115-.064h0c.058-.032.116-.064.174-.094l.083-.042.012-.006.041-.021.026-.014c.063-.034.127-.065.19-.1l.224-.111.115-.056h.007l.021-.01.03-.014c.066-.032.133-.063.2-.093l.045-.021c.083-.039.17-.077.256-.114l.055-.025.2-.088H80.8l.235-.1.049-.02h0l.1-.04.107-.041.094-.036c.083-.03.16-.059.24-.088a.551.551,0,0,1,.054-.02c.07-.026.141-.05.212-.073l.125-.042c.064-.022.13-.044.195-.064l.083-.026.021-.007.014,0c.083-.024.157-.049.236-.072l.118-.035.119-.034.272-.074.13-.034h0l.017,0,.143-.036.143-.035.042-.01.126-.03.126-.028.057-.013h.017L84,343.7l.117-.024q.062-.014.124-.025l.182-.035.1-.019.2-.062h0l.147-.024.147-.023.107-.016.108-.015h.058l.149-.019H85.5c.059-.007.118-.015.178-.021l.183-.02.109-.028.218-.02.225-.017.179-.012h.062l.209-.011h.062l.183-.007h.979c.069,0,.139,0,.208.007h.027c.062,0,.123,0,.184.007h.006l.179.011.088,0c.054,0,.107.007.16.012h.016l.157.012h.007c.077.006.153.013.229.021h.031l.083.008.115.012H89.6l.183.021h.019l.033,0,.076.01.182.025.125.018.031,0,.148.023.248.041c.078.014.158.028.236.044.1.02.206.04.308.061l.306.067.268.064.089.022.034.008.145.038c.117.031.235.063.351.1.083.023.165.045.248.07l.047.014.1.031.2.062.089.028.165.054.05.017.2.068h.007l.127.045.1.038.2.074c.09.034.179.069.268.1h0l.04.016.04.017.083.033.024.01.013.006.021.008c.045.017.092.037.136.057.07.029.138.059.207.09l.021.009.036.016.062.027.061.028h0l.033.015.13.059.026.012c.022.01.045.02.067.031h0c.071.034.144.068.214.1l.076.038.019.009c.059.029.117.058.175.088l.031.017h.006l.031.017.031.017.026.013c.064.032.128.067.191.1l.069.037q.112.06.223.124l.036.02c.083.046.165.094.248.143l.046.027c.064.038.129.076.192.116.046.028.092.056.139.083l.017.011.111.069.012.007h.007l.052.033.036.023c.069.044.14.089.208.135l.059.04c.057.037.112.075.165.114l.008.006.129.089h0c.036.025.073.05.11.078s.087.061.13.093.109.083.165.119l.021.017.1.073c.074.055.149.112.222.17s.118.092.177.139l.1.078.169.14c.023.018.046.037.069.057h0c.05.041.1.083.148.126h0l.013.012h0l.006,0,.057.049c.032.027.064.056.1.083l.026.024c.057.049.114.1.17.151q.2.184.4.377l.131.129c.054.052.107.1.159.159q.225.226.44.462l.026.029c.045.05.091.1.135.149l0,0,.047.054c.071.083.14.16.21.241a19.909,19.909,0,0,1-26.952.051Z" transform="translate(-66.524 -313.845)" fill="#231f20"/>
    <path id="Path_2048" data-name="Path 2048" d="M207.346,350.223l-4.929,6.328-4.7-6.4a18.25,18.25,0,0,1,4.7-.616A17.8,17.8,0,0,1,207.346,350.223Z" transform="translate(-181.44 -320.716)" fill="#231f20"/>
    <path id="Path_2049" data-name="Path 2049" d="M195.994,342.766a18.426,18.426,0,0,0-5.037-.706h-.064a18.852,18.852,0,0,0-4.856.638l-.876.234.036.049.777,1.057,4.905,6.68,5.2-6.673.8-1.024Zm-8.745.914a17.613,17.613,0,0,1,3.644-.382h.07a17.32,17.32,0,0,1,3.79.427l-3.846,4.937-3.641-4.955Z" transform="translate(-169.917 -313.855)" fill="#231f20"/>
  </g>
</svg>
